<svg xmlns="http://www.w3.org/2000/svg" enable-background="new 0 0 24 24" viewBox="0 0 24 24" id="docker"><path fill="#364548" d="M12.465,9.139h2.452v2.507h1.24c0.573,0,0.389,0.835,0.931,0.651c0.266-0.09,0.565-0.216,0.828-0.374c-0.346-0.452-0.523-1.022-0.575-1.585c-0.071-0.765,0.084-1.761,0.601-2.36L18.2,7.68l0.307,0.247c0.773,0.621,1.424,1.489,1.538,2.479c0.931-0.274,2.024-0.209,2.845,0.265l0.337,0.194l-0.177,0.346c-0.694,1.355-2.145,1.774-3.564,1.7c-2.123,5.288-5.972,6.854-11.576,6.854c-2.895,0-5.552-1.082-7.064-3.651l-0.025-0.042L0.6,15.624c-0.511-1.131-0.681-2.369-0.566-3.607l0.035-0.371h2.097V9.139h2.452V6.687h4.904V4.235h2.943V9.139L12.465,9.139z"></path><path fill="#22A0C8" d="M19.636,11.004c0.164-1.278-0.792-2.281-1.385-2.758c-0.683,0.79-0.79,2.861,0.283,3.733c-0.598,0.531-1.086,0.076-2.377,0.076H0.442c-0.125,1.348,0.111,2.589,0.651,3.651l0.179,0.327c0.113,0.192,0.237,0.378,0.37,0.556c0.646,0.042,1.242,0.056,1.787,0.044h0c1.071-0.024,1.945-0.15,2.607-0.38c0.1-0.031,0.205,0.025,0.236,0.124c0.03,0.095-0.02,0.197-0.113,0.232c-0.088,0.031-0.18,0.059-0.275,0.086h0c-0.521,0.149-1.081,0.249-1.802,0.294c0.043,0.001-0.045,0.006-0.045,0.006c-0.025,0.002-0.056,0.005-0.08,0.006c-0.284,0.016-0.59,0.019-0.904,0.019c-0.343,0-0.68-0.006-1.058-0.026l-0.01,0.006c1.309,1.472,3.357,2.354,5.923,2.354c5.431,0,9.265-1.47,11.305-6.876c1.447,0.149,2.838-0.221,3.471-1.456C21.678,10.443,20.382,10.629,19.636,11.004L19.636,11.004z"></path><path fill="#37B1D9" d="M19.636,11.004c0.164-1.278-0.792-2.281-1.385-2.758c-0.683,0.79-0.79,2.861,0.283,3.733c-0.598,0.531-1.086,0.076-2.377,0.076H1.372c-0.064,2.064,0.702,3.63,2.057,4.578h0c1.071-0.024,1.945-0.15,2.607-0.38c0.1-0.031,0.205,0.025,0.236,0.124c0.03,0.095-0.02,0.197-0.113,0.232c-0.088,0.031-0.18,0.059-0.275,0.086h0c-0.521,0.149-1.129,0.262-1.85,0.306l-0.018-0.017c1.848,0.948,4.529,0.945,7.601-0.236c3.445-1.324,5.879-2.908,8.116-5.793C19.701,10.972,19.668,10.988,19.636,11.004L19.636,11.004z"></path><path fill="#1B81A5" d="M0.471,13.692c0.098,0.722,0.309,1.398,0.622,2.013l0.179,0.327c0.113,0.192,0.237,0.378,0.37,0.556c0.646,0.042,1.242,0.056,1.787,0.044c1.071-0.024,1.945-0.15,2.607-0.38c0.1-0.031,0.205,0.025,0.236,0.124c0.03,0.095-0.02,0.197-0.113,0.232c-0.088,0.031-0.18,0.059-0.275,0.086h0c-0.521,0.149-1.126,0.256-1.847,0.3c-0.025,0.002-0.068,0.002-0.093,0.003c-0.284,0.016-0.587,0.026-0.901,0.026c-0.343,0-0.693-0.007-1.07-0.026c1.309,1.472,3.369,2.358,5.936,2.358c4.65,0,8.695-1.765,11.043-5.664H0.471L0.471,13.692z"></path><path fill="#1D91B4" d="M1.514,13.692c0.278,1.268,0.946,2.263,1.916,2.94c1.071-0.024,1.945-0.15,2.607-0.38c0.1-0.031,0.205,0.025,0.236,0.124c0.03,0.095-0.02,0.197-0.113,0.232c-0.088,0.031-0.18,0.059-0.275,0.086h0c-0.521,0.149-1.138,0.256-1.86,0.3c1.848,0.948,4.521,0.934,7.593-0.246c1.859-0.714,3.648-1.777,5.253-3.058H1.514L1.514,13.692z"></path><path fill="#23A3C2" d="M2.575,9.548H4.7v2.125H2.575V9.548z M2.752,9.725h0.168v1.771H2.752V9.725z M3.067,9.725h0.174v1.771H3.067L3.067,9.725L3.067,9.725z M3.389,9.725h0.174v1.771H3.389V9.725z M3.711,9.725h0.174v1.771H3.711V9.725z M4.033,9.725h0.174v1.771H4.033L4.033,9.725L4.033,9.725z M4.355,9.725h0.168v1.771H4.355V9.725z M5.027,7.096h2.125v2.125H5.026L5.027,7.096L5.027,7.096z M5.204,7.273h0.168v1.771H5.204V7.273z M5.519,7.273h0.174v1.771H5.519L5.519,7.273L5.519,7.273z M5.841,7.273h0.174v1.771H5.841V7.273z M6.163,7.273h0.174v1.771H6.163V7.273z M6.485,7.273h0.174v1.771H6.485V7.273z M6.807,7.273h0.168v1.771H6.807V7.273z"></path><path fill="#34BBDE" d="M5.027,9.548h2.125v2.125H5.026L5.027,9.548L5.027,9.548z M5.204,9.725h0.168v1.771H5.204V9.725z M5.519,9.725h0.174v1.771H5.519L5.519,9.725L5.519,9.725z M5.841,9.725h0.174v1.771H5.841V9.725z M6.163,9.725h0.174v1.771H6.163V9.725z M6.485,9.725h0.174v1.771H6.485V9.725z M6.807,9.725h0.168v1.771H6.807V9.725z"></path><path fill="#23A3C2" d="M7.479,9.548h2.125v2.125H7.479V9.548z M7.656,9.725h0.168v1.771H7.656V9.725z M7.971,9.725h0.174v1.771H7.971V9.725z M8.293,9.725h0.174v1.771H8.293V9.725z M8.615,9.725h0.174v1.771H8.615V9.725z M8.937,9.725h0.175v1.771H8.937V9.725z M9.259,9.725h0.168v1.771H9.259V9.725z"></path><path fill="#34BBDE" d="M7.479,7.096h2.125v2.125H7.479V7.096z M7.656,7.273h0.168v1.771H7.656V7.273z M7.971,7.273h0.174v1.771H7.971V7.273z M8.293,7.273h0.174v1.771H8.293V7.273z M8.615,7.273h0.174v1.771H8.615V7.273z M8.937,7.273h0.175v1.771H8.937V7.273z M9.259,7.273h0.168v1.771H9.259V7.273z M9.931,9.548h2.125v2.125H9.931V9.548z M10.108,9.725h0.168v1.771h-0.168V9.725z M10.423,9.725h0.174v1.771h-0.174V9.725z M10.745,9.725h0.174v1.771h-0.174V9.725z M11.067,9.725h0.174v1.771h-0.174V9.725z M11.389,9.725h0.174v1.771h-0.174V9.725z M11.711,9.725h0.168v1.771h-0.168V9.725z"></path><path fill="#23A3C2" d="M9.931,7.096h2.125v2.125H9.931V7.096z M10.108,7.273h0.168v1.771h-0.168V7.273z M10.423,7.273h0.174v1.771h-0.174V7.273z M10.745,7.273h0.174v1.771h-0.174V7.273z M11.067,7.273h0.174v1.771h-0.174V7.273z M11.389,7.273h0.174v1.771h-0.174V7.273z M11.711,7.273h0.168v1.771h-0.168V7.273z"></path><path fill="#34BBDE" d="M9.931,4.644h2.125v2.125H9.931V4.644z M10.108,4.821h0.168v1.771h-0.168V4.821L10.108,4.821z M10.423,4.821h0.174v1.771h-0.174V4.821L10.423,4.821z M10.745,4.821h0.174v1.771h-0.174V4.821L10.745,4.821z M11.067,4.821h0.174v1.771h-0.174V4.821L11.067,4.821z M11.389,4.821h0.174v1.771h-0.174V4.821L11.389,4.821z M11.711,4.821h0.168v1.771h-0.168V4.821L11.711,4.821z"></path><path fill="#23A3C2" d="M13.207,9.548h2.125v2.125h-2.125V9.548z M13.384,9.725h0.168v1.771h-0.168L13.384,9.725L13.384,9.725z M13.699,9.725h0.174v1.771h-0.174L13.699,9.725L13.699,9.725z M14.021,9.725h0.174v1.771h-0.174V9.725z M14.343,9.725h0.174v1.771h-0.174V9.725z M14.665,9.725h0.174v1.771h-0.174V9.725z M14.987,9.725h0.168v1.771h-0.168V9.725z"></path><path fill="#D3ECEC" d="M7.019,15.119c0.324-0.004,0.59,0.255,0.594,0.579c0.004,0.324-0.255,0.59-0.579,0.594c-0.005,0-0.011,0-0.016,0c-0.324-0.004-0.583-0.27-0.578-0.594C6.445,15.379,6.701,15.123,7.019,15.119L7.019,15.119z"></path><path fill="#364548" d="M7.019,15.285c0.054,0,0.105,0.01,0.152,0.028c-0.082,0.048-0.11,0.152-0.062,0.234c0.031,0.053,0.087,0.085,0.148,0.085c0.065,0,0.121-0.036,0.15-0.089c0.089,0.214-0.013,0.46-0.227,0.549c-0.214,0.089-0.46-0.013-0.549-0.227c-0.089-0.214,0.013-0.46,0.227-0.549C6.909,15.296,6.964,15.285,7.019,15.285L7.019,15.285z"></path><path fill="#BDD9D7" d="M8.577,19.343c-1.452-0.689-2.249-1.626-2.692-2.648c-0.539,0.154-1.188,0.252-1.941,0.295c-0.284,0.016-0.582,0.024-0.895,0.024c-0.361,0-0.742-0.011-1.141-0.032c1.332,1.331,2.97,2.355,6.003,2.374C8.134,19.356,8.356,19.352,8.577,19.343L8.577,19.343z"></path><path fill="#D3ECEC" d="M6.424,17.639c-0.201-0.273-0.396-0.615-0.539-0.944c-0.539,0.154-1.188,0.253-1.941,0.295C4.462,17.271,5.202,17.531,6.424,17.639L6.424,17.639z"></path><path d="M8.197,21c-2.785,0-4.935-0.875-6.388-2.602c-1.389-1.652-2.077-4.194-1.713-6.327c0.062-0.36,0.374-0.624,0.739-0.624h15.281c0.265,0.01,0.489-0.021,0.682-0.061c-0.391-1.266-0.08-2.726,0.523-3.642l0.329-0.496c0.11-0.166,0.282-0.281,0.477-0.321c0.197-0.04,0.398,0.001,0.564,0.111l0.492,0.328c0.801,0.617,1.329,1.301,1.598,2.054c0.862-0.04,1.84,0.099,2.421,0.492l0.465,0.312c0.311,0.208,0.42,0.614,0.257,0.951l-0.051,0.106c-0.083,0.171-0.204,0.419-0.26,0.523c-0.876,1.672-2.452,1.95-3.378,1.988C18.12,18.446,13.865,21,8.197,21z M1.506,12.947c-0.085,1.575,0.463,3.31,1.452,4.485c1.155,1.372,2.917,2.067,5.24,2.067c5.205,0,9.059-2.393,10.851-6.739c0.118-0.285,0.391-0.465,0.708-0.464c0.937,0.019,1.961-0.108,2.526-1.184c-0.337-0.155-1.18-0.277-1.931-0.137c-0.2,0.04-0.41-0.008-0.577-0.128c-0.167-0.12-0.277-0.303-0.305-0.506c-0.081-0.59-0.405-1.121-0.988-1.616c-0.406,0.742-0.533,1.917-0.034,2.686c0.114,0.175,0.149,0.391,0.098,0.594c-0.051,0.203-0.186,0.375-0.37,0.475c-0.271,0.147-1.001,0.494-2.071,0.468H1.506z"></path><path d="M15.913,12.941H1.729c-0.414,0-0.75-0.336-0.75-0.75V9.377c0-0.414,0.336-0.75,0.75-0.75h14.184c0.414,0,0.75,0.336,0.75,0.75v2.814C16.663,12.605,16.327,12.941,15.913,12.941z M2.479,11.441h12.684v-1.314H2.479V11.441z"></path><path d="M12.978,10.127H4.174c-0.414,0-0.75-0.336-0.75-0.75V6.564c0-0.414,0.336-0.75,0.75-0.75h8.804c0.414,0,0.75,0.336,0.75,0.75v2.813C13.728,9.792,13.392,10.127,12.978,10.127z M4.924,8.627h7.304V7.314H4.924V8.627z"></path><path d="M12.978,12.941h-2.935c-0.414,0-0.75-0.336-0.75-0.75V3.75c0-0.414,0.336-0.75,0.75-0.75h2.935c0.414,0,0.75,0.336,0.75,0.75v8.441C13.728,12.605,13.392,12.941,12.978,12.941z M10.793,11.441h1.435V4.5h-1.435V11.441z"></path><path d="M10.043,12.941H7.109c-0.414,0-0.75-0.336-0.75-0.75V6.564c0-0.414,0.336-0.75,0.75-0.75h2.935c0.414,0,0.75,0.336,0.75,0.75v5.627C10.793,12.605,10.458,12.941,10.043,12.941z M7.859,11.441h1.435V7.314H7.859V11.441z"></path><path d="M7.109,12.941H4.174c-0.414,0-0.75-0.336-0.75-0.75V9.377c0-0.414,0.336-0.75,0.75-0.75h2.935c0.414,0,0.75,0.336,0.75,0.75v2.814C7.859,12.605,7.523,12.941,7.109,12.941z M4.924,11.441h1.435v-1.314H4.924V11.441z"></path></svg>